<svg version="1.1" id="Layer_1" xmlns="http://www.w3.org/2000/svg" xmlns:xlink="http://www.w3.org/1999/xlink" viewBox="0 0 908.761 203.51" enable-background="new 0 0 908.761 203.51" xml:space="preserve"> <g id="Layer_1_1_"> <linearGradient id="SVGID_1_" gradientUnits="userSpaceOnUse" x1="235.3481" y1="76.1855" x2="235.3481" y2="76.1855" gradientTransform="matrix(1 0 0 -1 0 204.5098)"> <stop offset="0" style="stop-color:#F7951D"/> <stop offset="1" style="stop-color:#DD1865"/> </linearGradient> <path fill="none" stroke="url(#SVGID_1_)" stroke-width="1.4" stroke-linecap="round" stroke-linejoin="round" stroke-miterlimit="10" d="M235.348,128.324"/> <linearGradient id="SVGID_2_" gradientUnits="userSpaceOnUse" x1="383.4785" y1="145.9971" x2="383.4785" y2="145.9971" gradientTransform="matrix(1 0 0 -1 0 204.5098)"> <stop offset="0" style="stop-color:#F7951D"/> <stop offset="1" style="stop-color:#DD1865"/> </linearGradient> <path fill="none" stroke="url(#SVGID_2_)" stroke-width="1.4" stroke-linecap="round" stroke-linejoin="round" stroke-miterlimit="10" d="M383.479,58.513"/> <linearGradient id="SVGID_3_" gradientUnits="userSpaceOnUse" x1="44.6147" y1="104.5273" x2="838.2778" y2="104.5273" gradientTransform="matrix(1 0 0 -1 0 204.5098)"> <stop offset="0" style="stop-color:#F7951D"/> <stop offset="1" style="stop-color:#DD1865"/> </linearGradient> <path fill="none" stroke="url(#SVGID_3_)" stroke-width="1.4" stroke-linecap="round" stroke-linejoin="round" stroke-miterlimit="10" d="M235.348,128.324c-3.406,0-6.168-2.761-6.168-6.167V84.041c0-2.343-2.033-4.144-4.527-4.144h-66.095 c-2.116,0-3.997,1.797-4.137,4.068l-0.011,51.509h-12.062c0.471,3.857,3.756,6.852,7.74,6.852h2.725c0,0,75.129,0.099,80.69,0 c6.747-0.119,7.74-6.852,7.74-6.852H163.92h77.323c-0.469,3.857-3.753,6.852-7.74,6.852H154.41 c0,14.035-11.377,25.412-25.412,25.412s-24.024-11.446-25.413-25.412c-0.501-5.036-0.705-22.689-0.705-22.689 s8.594,0.557,20.689-4.033l1.527-20.045c0,0,9.264-3.191,6.535-6.952c-3.736-5.158-8.602-15.103-8.602-15.103 s2.207-4.201,1.928-6.845l-1.541-16.29H96.798l-1.541,15.34c-1.861,11.207-10.65,13.072-10.65,13.072 c-0.818-3.38-3.861-5.891-7.494-5.891c-4.256,0-7.707,3.453-7.707,7.709c0,0,0.049,1.536,0.111,2.083 c1.338,12.696,14.848,14.252,14.848,14.252l-11.633,15.973h-7.311v22.902v-22.902c0,0-9.236-11.842-12.186-15.793 c-5.02-6.725-7.92-15.104-7.92-24.142c0-22.5,18.24-40.742,40.742-40.742c1.859,0,4.439,0.029,4.928,0.029 c18.209,0,32.672,8.896,32.672,8.896 M235.348,128.324c0,0,148.132,16.78,148.132-75.232c0-1.998,1.619-3.619,3.619-3.619h46.018 c1.999,0,3.62,1.621,3.62,3.619v2.389V59.4h-48.745h48.745v13.117v7.688c0,0-4.094,1.694-7.847,5.464L387.1,85.67 c-2,0-3.619-1.623-3.619-3.619c0,0,0.188,3.619,3.619,3.619c3.542,0,41.791-0.001,41.791-0.001s-0.144,0.167-0.588,0.611 c-2.182,2.351-4.165,5.429-5.045,9.312c0,0,0.892,0.72,1.332,1.152c3.869,3.659,6.281,8.839,6.281,14.584 c0,0,0.436-9.716-7.968-16.013c-3.364-2.549-7.56-4.061-12.107-4.061c-11.089,0-20.079,8.986-20.079,20.074 c0,0-0.009,1.203,0.014,1.805c-8.636,1.323-15.25,8.784-15.25,17.792c0,8.483,5.867,15.594,13.766,17.498 c0,0,2.117,0.501,4.231,0.501h79.125c9.941,0,18-8.062,18-17.999c0-9.167-6.846-16.734-15.707-17.857 c1.012-2.832,1.562-5.89,1.562-9.072c0-8.493-3.922-16.071-10.051-21.023c0,0-7.158-5.989-16.965-5.989 c22.418,0,23.731-19.326,23.731-19.326c1.691,24.93,17.48,47.596,41.232,59.701c25.443-12.967,40.672-42.1,40.672-68.525 c-16.412,0-34.246-5.996-39.918-10.844c-4.787,4.095-17.971,9.007-32.607,10.436c0,0,0.857,4.238,32.447,5.694l-0.322,73.28 c-7.719,2.57-13.285,9.851-13.285,18.438c0,10.732,8.701,19.43,19.434,19.43c10.729,0,19.43-8.697,19.43-19.43 c0-4.74-1.697-9.083-4.516-12.454l-0.65-0.508l-14.264,17.446l-6.465-5.93l6.465,5.93c0,0,19.633-24.279,26.35-32.229 M791.859,120.032h-90.908c-8.213,0-14.871,6.658-14.871,14.871c0,8.214,6.658,14.871,14.871,14.871h121.756 c8.213,0,14.871-6.657,14.871-14.871c0-8.213-6.658-14.871-14.871-14.871c-0.621-0.014-3.912-0.109-3.912-0.109 c-21.074-0.922-25.854-7.408-26.92-10.662c-0.238-0.63-0.295-1.851-0.295-1.851c0-3.113-2.52-5.595-5.627-5.595h-5.627v5.595 c0.27,5.639,5.627,5.625,5.627,5.625c-3.104,0-5.627-2.519-5.627-5.625v-5.595h-45.908h-8.734c5.672,0,5.627,5.595,5.627,5.595 c0,3.106-2.52,5.625-5.627,5.625s-5.627-2.519-5.627-5.625c0-3.113,2.52-5.638,5.627-5.595 c14.561,0.204,14.162-19.874,14.162-19.874c1.154,5.805,6.668,5.172,6.668,5.172l44.883,0.041l9.1-41.446l-9.1,41.446H748.24 c-5.961,0-6.764-1.18-8.061-4.374L724.24,42.653l66.082,2.91l-66.082-2.91l-1.201-3.032c-1.846-4.86-8.105-3.872-9.461,1.07 c-2.088,7.611-22.268,49-86.932,49.389c-55.312,0.333-65.875,11.919-79.471,28.011"/> </g> <g id="Pieces"> <path fill="none" stroke="#F7951D" stroke-width="1.4" stroke-linecap="round" stroke-linejoin="round" stroke-miterlimit="10" d="M190.648,85.978c0,0.632,0.513,1.147,1.146,1.147c0.635,0,1.148-0.515,1.148-1.147c0-0.633-0.514-1.148-1.148-1.148 C191.161,84.83,190.648,85.345,190.648,85.978"/> <path fill="none" stroke="#DD1865" stroke-width="1.4" stroke-linecap="round" stroke-linejoin="round" stroke-miterlimit="10" d="M703.615,141.267h-3.758c-0.055,0-0.107-0.022-0.143-0.063c-0.037-0.044-0.055-0.095-0.045-0.149l2.23-14.142 c0.059-0.371,0.371-0.638,0.744-0.638h5.266c0.963,0,1.783,0.088,2.451,0.32c1.078,0.377,2.561,1.498,2.34,3.764 c0,0-0.092,0.793-0.184,1.25c-0.674,2.947-2.777,4.283-6.033,4.283h-1.547c-0.225,0-0.422,0.133-0.504,0.338l-0.02,0.039 l-1.027,6.525c-0.012,0.055,0.006,0.104,0.043,0.148c0.037,0.039,0.09,0.064,0.145,0.064h2.756c0.367,0,0.428-0.456,0.428-0.456 l0.58-3.524c0.066-0.418,0.426-0.723,0.854-0.723h0.408c2.928,0,4.609-1.318,5.139-4.031c0.258-1.328,0.115-2.494-0.963-3.414 c-0.482-0.41-1.381-0.756-2.416-0.756h-4.373c-0.482,0-0.697,0.383-0.73,0.599l-0.35,2.313"/> <path fill="none" stroke="#DD1865" stroke-width="1.4" stroke-linecap="round" stroke-linejoin="round" stroke-miterlimit="10" d="M781.603,135.442c-0.279-1.303-1.25-2.266-2.4-2.266c-1.375,0-2.49,1.368-2.49,3.055c0,1.688,1.115,3.056,2.49,3.056 c1.09,0,2.02-0.863,2.354-2.063"/> <path fill="none" stroke="#DD1865" stroke-width="1.4" stroke-linecap="round" stroke-linejoin="round" stroke-miterlimit="10" d="M786.859,139.276v-2.603c0-0.937,0-1.44-0.865-1.44s-2.268,0.505-2.268,1.44v2.603v-6.1"/> <path fill="none" stroke="#DD1865" stroke-width="1.4" stroke-linecap="round" stroke-linejoin="round" stroke-miterlimit="10" d="M789.326,137.278h3.379c0-1.118-0.756-2.025-1.689-2.025C790.083,135.253,789.326,136.16,789.326,137.278 c0,1.121,0.756,2.027,1.689,2.027c0.623,0,1.166-0.404,1.457-1.006"/> <path fill="none" stroke="#DD1865" stroke-width="1.4" stroke-linecap="round" stroke-linejoin="round" stroke-miterlimit="10" d="M798.402,136.308c-0.287-0.629-0.846-1.055-1.486-1.055c-0.934,0-1.689,0.904-1.689,2.021c0,1.115,0.758,2.02,1.689,2.02 c0.641,0,1.197-0.425,1.484-1.052"/> <line fill="none" stroke="#DD1865" stroke-width="1.4" stroke-linecap="round" stroke-linejoin="round" stroke-miterlimit="10" x1="801.056" y1="133.151" x2="801.056" y2="139.288"/> <line fill="none" stroke="#DD1865" stroke-width="1.4" stroke-linecap="round" stroke-linejoin="round" stroke-miterlimit="10" x1="803.869" y1="135.017" x2="801.056" y2="137.256"/> <line fill="none" stroke="#DD1865" stroke-width="1.4" stroke-linecap="round" stroke-linejoin="round" stroke-miterlimit="10" x1="803.869" y1="139.288" x2="801.789" y2="136.674"/> <ellipse fill="none" stroke="#DD1865" stroke-width="1.4" stroke-linecap="round" stroke-linejoin="round" stroke-miterlimit="10" cx="811.166" cy="137.261" rx="1.662" ry="2.027"/> <path fill="none" stroke="#DD1865" stroke-width="1.4" stroke-linecap="round" stroke-linejoin="round" stroke-miterlimit="10" d="M815.707,135.233v2.603c0,0.935,0,1.44,0.865,1.44c0.863,0,2.264-0.506,2.266-1.44l-0.002-2.603v4.043"/> <path fill="none" stroke="#DD1865" stroke-width="1.4" stroke-linecap="round" stroke-linejoin="round" stroke-miterlimit="10" d="M821.494,133.178v5.462c0,0-0.055,0.647,0.646,0.647c0.703,0,0.703,0,0.703,0"/> <line fill="none" stroke="#DD1865" stroke-width="1.4" stroke-linecap="round" stroke-linejoin="round" stroke-miterlimit="10" x1="820.494" y1="135.287" x2="822.845" y2="135.287"/> <path fill="none" stroke="#DD1865" stroke-width="1.4" stroke-linecap="round" stroke-linejoin="round" stroke-miterlimit="10" d="M721.691,136.452h2.889c1.074,0,2.701-0.139,3.125-2.854c0.307-1.977-0.85-2.521-1.924-2.521h-3.348l-1.314,9.219"/> <path fill="none" stroke="#DD1865" stroke-width="1.4" stroke-linecap="round" stroke-linejoin="round" stroke-miterlimit="10" d="M748.511,136.452h2.891c1.072,0,2.701-0.139,3.125-2.854c0.307-1.977-0.852-2.521-1.926-2.521h-3.348l-1.314,9.219"/> <path fill="none" stroke="#DD1865" stroke-width="1.4" stroke-linecap="round" stroke-linejoin="round" stroke-miterlimit="10" d="M734.8,138.497c-0.701,1.43-3.094,2.243-4.213,1.597c-1.117-0.643-1.213-2.407-0.512-3.84c0.701-1.43,2.697-2.079,3.816-1.435 C735.013,135.464,735.501,137.065,734.8,138.497z"/> <line fill="none" stroke="#DD1865" stroke-width="1.4" stroke-linecap="round" stroke-linejoin="round" stroke-miterlimit="10" x1="736.011" y1="134.58" x2="735.197" y2="140.295"/> <path fill="none" stroke="#DD1865" stroke-width="1.4" stroke-linecap="round" stroke-linejoin="round" stroke-miterlimit="10" d="M761.63,138.497c-0.701,1.43-3.094,2.243-4.213,1.597c-1.119-0.643-1.213-2.407-0.512-3.84c0.703-1.43,2.697-2.079,3.818-1.435 S762.332,137.065,761.63,138.497z"/> <line fill="none" stroke="#DD1865" stroke-width="1.4" stroke-linecap="round" stroke-linejoin="round" stroke-miterlimit="10" x1="762.845" y1="134.58" x2="762.027" y2="140.295"/> <line fill="none" stroke="#DD1865" stroke-width="1.4" stroke-linecap="round" stroke-linejoin="round" stroke-miterlimit="10" x1="739.476" y1="134.58" x2="741.373" y2="140.319"/> <line fill="none" stroke="#DD1865" stroke-width="1.4" stroke-linecap="round" stroke-linejoin="round" stroke-miterlimit="10" x1="739.476" y1="143.406" x2="745.353" y2="134.571"/> <line fill="none" stroke="#DD1865" stroke-width="1.4" stroke-linecap="round" stroke-linejoin="round" stroke-miterlimit="10" x1="766.937" y1="131.076" x2="765.623" y2="140.295"/> </g> </svg>